<?xml version="1.0" encoding="UTF-8"?>
<mxfile host="app.diagrams.net">
  <diagram id="login-system-flowchart" name="Login System Flowchart">
    <mxGraphModel dx="1000" dy="1000" grid="1" gridSize="10" guides="1" tooltips="1" connect="1" arrows="1" fold="1" page="1" pageScale="1" pageWidth="827" pageHeight="1169" math="0" shadow="0">
      <root>
        <mxCell id="0" />
        <mxCell id="1" parent="0" />
        <!-- Start -->
        <mxCell id="2" value="Start" style="shape=ellipse;whiteSpace=wrap;html=1;fillColor=#dae8fc;strokeColor=#6c8ebf;" vertex="1" parent="1">
          <mxGeometry x="60" y="60" width="80" height="40" as="geometry" />
        </mxCell>
        <!-- Input Username/Password -->
        <mxCell id="3" value="Input Username/Password" style="rounded=1;whiteSpace=wrap;html=1;fillColor=#fff2cc;strokeColor=#d6b656;" vertex="1" parent="1">
          <mxGeometry x="180" y="60" width="160" height="60" as="geometry" />
        </mxCell>
        <!-- Validate Credentials -->
        <mxCell id="4" value="Validate Credentials" style="rounded=1;whiteSpace=wrap;html=1;fillColor=#d5e8d4;strokeColor=#82b366;" vertex="1" parent="1">
          <mxGeometry x="380" y="60" width="160" height="60" as="geometry" />
        </mxCell>
        <!-- Decision: Valid? -->
        <mxCell id="5" value="Are credentials valid?" style="rhombus;whiteSpace=wrap;html=1;fillColor=#e1d5e7;strokeColor=#9673a6;" vertex="1" parent="1">
          <mxGeometry x="600" y="60" width="120" height="80" as="geometry" />
        </mxCell>
        <!-- Success -->
        <mxCell id="6" value="Login Success" style="rounded=1;whiteSpace=wrap;html=1;fillColor=#b7e1cd;strokeColor=#388e3c;" vertex="1" parent="1">
          <mxGeometry x="760" y="30" width="120" height="60" as="geometry" />
        </mxCell>
        <!-- Failure -->
        <mxCell id="7" value="Login Failed\nShow Error" style="rounded=1;whiteSpace=wrap;html=1;fillColor=#f8cecc;strokeColor=#b85450;" vertex="1" parent="1">
          <mxGeometry x="760" y="110" width="120" height="60" as="geometry" />
        </mxCell>
        <!-- Arrows -->
        <mxCell id="8" style="edgeStyle=orthogonalEdgeStyle;endArrow=block;html=1;strokeColor=#000000;" edge="1" parent="1" source="2" target="3">
          <mxGeometry relative="1" as="geometry" />
        </mxCell>
        <mxCell id="9" style="edgeStyle=orthogonalEdgeStyle;endArrow=block;html=1;strokeColor=#000000;" edge="1" parent="1" source="3" target="4">
          <mxGeometry relative="1" as="geometry" />
        </mxCell>
        <mxCell id="10" style="edgeStyle=orthogonalEdgeStyle;endArrow=block;html=1;strokeColor=#000000;" edge="1" parent="1" source="4" target="5">
          <mxGeometry relative="1" as="geometry" />
        </mxCell>
        <mxCell id="11" value="Yes" style="text;html=1;strokeColor=none;fillColor=none;align=center;verticalAlign=middle;" vertex="1" parent="1">
          <mxGeometry x="720" y="50" width="30" height="20" as="geometry" />
        </mxCell>
        <mxCell id="12" style="edgeStyle=orthogonalEdgeStyle;endArrow=block;html=1;strokeColor=#000000;" edge="1" parent="1" source="5" target="6">
          <mxGeometry relative="1" as="geometry" />
        </mxCell>
        <mxCell id="13" value="No" style="text;html=1;strokeColor=none;fillColor=none;align=center;verticalAlign=middle;" vertex="1" parent="1">
          <mxGeometry x="720" y="120" width="30" height="20" as="geometry" />
        </mxCell>
        <mxCell id="14" style="edgeStyle=orthogonalEdgeStyle;endArrow=block;html=1;strokeColor=#000000;" edge="1" parent="1" source="5" target="7">
          <mxGeometry relative="1" as="geometry" />
        </mxCell>
        <!-- End -->
        <mxCell id="15" value="End" style="shape=ellipse;whiteSpace=wrap;html=1;fillColor=#dae8fc;strokeColor=#6c8ebf;" vertex="1" parent="1">
          <mxGeometry x="920" y="30" width="80" height="40" as="geometry" />
        </mxCell>
        <mxCell id="16" style="edgeStyle=orthogonalEdgeStyle;endArrow=block;html=1;strokeColor=#000000;" edge="1" parent="1" source="6" target="15">
          <mxGeometry relative="1" as="geometry" />
        </mxCell>
      </root>
    </mxGraphModel>
  </diagram>
</mxfile>
